<svg id="Layer_1" data-name="Layer 1" xmlns="http://www.w3.org/2000/svg" viewBox="0 0 1042.59 74.3"><defs><style>.cls-1{fill:#231f20;}</style></defs><title>Pacific Pavers &amp;amp; Stone Logo</title><path class="cls-1" d="M-719.6-337.41c0-4.3,2.3-6.5,6.6-6.5h24.9c14.4,0,23.9,10.9,23.9,25.7s-9.5,26-23.9,26h-10.4v13.7c0,4.2-2.2,6.5-6.5,6.5h-8c-4.3,0-6.6-2.3-6.6-6.5v-58.9Zm27,27.2c5,0,7-3.6,7-8s-2-7.7-6.6-7.7h-6.3v15.7h5.9Z" transform="translate(719.6 345.11)"/><path class="cls-1" d="M-635.29-303.51h1v-1.7c0-2.5-2.9-3.2-5.6-3.2a23.67,23.67,0,0,0-8.3,1.9c-4,1.7-6.9.9-8.8-3l-1.4-3c-1.7-3.7-1-7,2.7-8.7a43.07,43.07,0,0,1,17.8-3.9c14.9,0,24.4,8.3,24.4,21.6v25c0,4.2-2.2,6.5-6.5,6.5h-5.9c-4.1,0-6.2-2.4-6.5-6.9h-0.2c-2.8,4.3-6.9,8.1-14.6,8.1-10.4,0-16.7-7.4-16.7-16C-663.9-299-649.1-303.51-635.29-303.51Zm-5.6,18.3a6.68,6.68,0,0,0,6.8-6.8v-1h-1.1c-5.7,0-9.8,1.6-9.8,4.4C-645-287.11-643.9-285.21-640.89-285.21Z" transform="translate(719.6 345.11)"/><path class="cls-1" d="M-579.29-325.11c7.5,0,13,2,16.5,4.2s3.6,5.5,1.5,8.9l-2,3.1c-2.3,3.6-4.9,3.8-8.8,2a14.79,14.79,0,0,0-5.8-1c-7.3,0-9.8,5.5-9.8,9.6s2.7,10.3,10.5,10.3a18.62,18.62,0,0,0,7.7-2.1c4-2.1,6.9-1.6,8.9,2.3l1.5,3c1.8,3.6,1.4,6.9-1.8,9a35.19,35.19,0,0,1-18.4,5c-19.6,0-29.5-13.5-29.5-27.2C-608.8-311.31-599.1-325.11-579.29-325.11Z" transform="translate(719.6 345.11)"/><path class="cls-1" d="M-553.6-317.41c0-4.3,2.3-6.5,6.5-6.5h7.8c4.3,0,6.6,2.2,6.6,6.5v38.9c0,4.2-2.3,6.5-6.6,6.5h-7.8c-4.2,0-6.5-2.3-6.5-6.5v-38.9Zm0.4-17.9v-2.1c0-4.3,2.2-6.5,6.5-6.5h7.1c4.2,0,6.5,2.2,6.5,6.5v2.1c0,4.3-2.3,6.6-6.5,6.6h-7.1C-551-328.71-553.2-331-553.2-335.31Z" transform="translate(719.6 345.11)"/><path class="cls-1" d="M-520.7-307.81h-0.4c-4.3,0-6.5-2.2-6.5-6.5v-3.1c0-4.3,2.2-6.5,6.5-6.5h0.4v-1.5c0-16.6,17.7-18.9,23.2-18.9h1.9c4.3,0,6.5,2.3,6.5,6.6v4.5c0,4.2-2.2,6.1-6.4,6.5-1.5.2-4.3,0.4-4.3,2.5v0.3h27.2c4.3,0,6.6,2.2,6.6,6.5v38.9c0,4.2-2.3,6.5-6.6,6.5h-7.8c-4.3,0-6.5-2.3-6.5-6.5v-29.3h-12.9v29.3c0,4.2-2.3,6.5-6.6,6.5h-7.8c-4.2,0-6.5-2.3-6.5-6.5v-29.3Zm34.2-27.5v-2.1c0-4.3,2.2-6.5,6.5-6.5h7.1c4.2,0,6.5,2.2,6.5,6.5v2.1c0,4.3-2.3,6.6-6.5,6.6H-480C-484.3-328.71-486.5-331-486.5-335.31Z" transform="translate(719.6 345.11)"/><path class="cls-1" d="M-431.2-325.11c7.5,0,13,2,16.5,4.2s3.6,5.5,1.5,8.9l-2,3.1c-2.3,3.6-4.9,3.8-8.8,2a14.79,14.79,0,0,0-5.8-1c-7.3,0-9.8,5.5-9.8,9.6s2.7,10.3,10.5,10.3a18.62,18.62,0,0,0,7.7-2.1c4-2.1,6.9-1.6,8.9,2.3l1.5,3c1.8,3.6,1.4,6.9-1.8,9a35.19,35.19,0,0,1-18.4,5c-19.6,0-29.5-13.5-29.5-27.2C-460.7-311.31-451-325.11-431.2-325.11Z" transform="translate(719.6 345.11)"/><path class="cls-1" d="M-378.8-337.41c0-4.3,2.3-6.5,6.6-6.5h24.9c14.4,0,23.9,10.9,23.9,25.7s-9.5,26-23.9,26h-10.4v13.7c0,4.2-2.2,6.5-6.5,6.5h-8c-4.3,0-6.6-2.3-6.6-6.5v-58.9Zm27,27.2c5,0,7-3.6,7-8s-2-7.7-6.6-7.7h-6.3v15.7h5.9Z" transform="translate(719.6 345.11)"/><path class="cls-1" d="M-294.5-303.51h1v-1.7c0-2.5-2.9-3.2-5.6-3.2a23.67,23.67,0,0,0-8.3,1.9c-4,1.7-6.9.9-8.8-3l-1.4-3c-1.7-3.7-1-7,2.7-8.7a43.07,43.07,0,0,1,17.8-3.9c14.9,0,24.4,8.3,24.4,21.6v25c0,4.2-2.2,6.5-6.5,6.5h-5.9c-4.1,0-6.2-2.4-6.5-6.9h-0.2c-2.8,4.3-6.9,8.1-14.6,8.1-10.4,0-16.7-7.4-16.7-16C-323.1-299-308.3-303.51-294.5-303.51Zm-5.6,18.3a6.68,6.68,0,0,0,6.8-6.8v-1h-1.1c-5.7,0-9.8,1.6-9.8,4.4C-304.2-287.11-303.1-285.21-300.1-285.21Z" transform="translate(719.6 345.11)"/><path class="cls-1" d="M-269.2-316.41c-1.6-4.5.5-7.5,5.3-7.5h8.3c3.8,0,6.2,1.8,7.2,5.5l4.5,18.7c0.9,3.5,2,9.8,2,9.8h0.2s1-6.1,1.9-9.8l4.3-18.7c1.1-3.7,3.5-5.5,7.3-5.5h8.5c4.8,0,6.9,3,5.4,7.5l-12.7,39c-1.2,3.7-3.6,5.4-7.4,5.4h-14.5c-3.9,0-6.2-1.7-7.4-5.4Z" transform="translate(719.6 345.11)"/><path class="cls-1" d="M-184.8-325.11c15.9,0,24.7,11,24.7,24.3A7.09,7.09,0,0,1-167-294h-24.2c1.7,4.5,5.8,6,9.7,6a20.33,20.33,0,0,0,8.1-1.7c3.9-1.7,6.8-1.2,8.8,2.6l1.6,3.1c1.9,3.8,1.3,7-2.3,9a39.39,39.39,0,0,1-18,4.2c-19.6,0-29-14.1-29-27.2C-212.3-312.71-202.5-325.11-184.8-325.11Zm4.6,20.6c0.3-3.2-1.4-6.5-4.8-6.5-4.5,0-5.8,3.4-6,6.5h10.8Z" transform="translate(719.6 345.11)"/><path class="cls-1" d="M-154.7-317.41c0-4.3,2.3-6.5,6.5-6.5h6.9c4.3,0,6.6,2.2,6.6,6.5v2a23.28,23.28,0,0,1-.2,2.9h0.2c1.5-4.6,6.9-12,12.9-12,4.1,0,5.4,2.3,5.4,6.6v6.8c0,4.3-2.2,6.6-6.4,6.6-7.4,0-11,5.3-11,12.9v13.1c0,4.2-2.3,6.5-6.6,6.5h-7.8c-4.2,0-6.5-2.3-6.5-6.5v-38.9Z" transform="translate(719.6 345.11)"/><path class="cls-1" d="M-112.8-284.21l1.7-2.7c2.2-3.4,4.8-3.7,9-2.1,1,0.4,4.7,2.2,8.5,2.2,2.2,0,3-.9,3-2,0-4.4-23.2-.6-23.2-18.8,0-11.6,10.1-17.5,22.5-17.5,6.4,0,12.5,1.6,15.3,3,3.6,1.8,4.2,5.2,2.4,8.8l-1.4,2.8c-0.9,1.9-2.4,5.1-8.5,3.1-2.6-.8-5.3-1.8-8.2-1.8-2,0-2.8.7-2.8,1.9,0,4.2,23.2.4,23.2,18.3,0,10.4-8.3,18.2-22.2,18.2-8,0-14.9-2.6-17.6-4.3C-114.8-277.41-115.1-280.61-112.8-284.21Z" transform="translate(719.6 345.11)"/><path class="cls-1" d="M-31.3-309.81V-310s-7.9-4-7.9-15.3c0-15,12.8-19.8,24.4-19.8h3.2c4.3,0,6.5,2.2,6.5,6.5v4.3c0,4.3-2.2,6.5-6.5,6.5h-1.2c-4.3,0-5.1,3.5-5.1,5.8a4.8,4.8,0,0,0,4.6,5h6.6v-1.9c0-4.3,2.3-6.5,6.6-6.5H7.5c4.3,0,6.5,1.7,6.5,5.1v3.3h2.2c4.3,0,6.5,2.2,6.5,6.5v4.9c0,4.3-2.2,6.6-6.5,6.6H14v5.7c0,11.4-10,22.5-28.6,22.5-17.1,0-27.6-10-27.6-22.3A18.81,18.81,0,0,1-31.3-309.81Zm16.7,19.9c5.5,0,7.9-2.9,7.9-6.7V-299h-8.1c-2,0-5.9.3-5.9,4.5C-20.7-292-17.7-289.91-14.6-289.91Z" transform="translate(719.6 345.11)"/><path class="cls-1" d="M52.1-286.81l3.8-5.5c2.4-3.5,5.1-3.7,9-1.6,2.3,0.9,6.3,4.1,11.9,4.1,4.1,0,5.3-1.5,5.3-3.2,0-7.6-30.4-6.1-30.4-29.1,0-13.8,11.4-23,26.7-23,8.3,0,16.3,2.7,20,5.2,3.5,2.5,3.8,5.5,2.1,9l-2.9,5.7c-2.4,4.7-5.6,3.9-8.9,2.3-3.6-1.6-6.3-3.2-10.6-3.2-4,0-5.4,1.4-5.4,3.3,0,8.2,30.5,5.6,30.5,28.7,0,12.4-9.4,23.3-26.4,23.3-9.9,0-19.3-3.8-23.4-7C50.9-279.71,49-282.31,52.1-286.81Z" transform="translate(719.6 345.11)"/><path class="cls-1" d="M111.8-306.71h-0.6c-4.1,0-6.4-2.3-6.4-6.5v-3.1c0-4.3,2.3-6.5,6.4-6.5h1.3v-8.5c0-4.3,2.2-6.5,6.5-6.5h7.1c4.3,0,6.6,2.2,6.6,6.5v8.5h3.6c4.3,0,6.6,2.2,6.6,6.5v3.1c0,4.2-2.3,6.5-6.4,6.5h-3.8v12.4c0,2.7,1.5,4.3,4.3,4.7,4.7,0.7,6.4,1.5,6.4,6v5.6c0,4.9-3,6.5-8.5,6.5-6.5,0-23.1-2.4-23.1-18.9v-16.3Z" transform="translate(719.6 345.11)"/><path class="cls-1" d="M176.3-325.11c16.8,0,30.2,10.8,30.2,27.4,0,16.4-13.4,26.9-30.1,26.9s-30.1-10.5-30.1-26.9C146.3-314.31,159.7-325.11,176.3-325.11Zm0.1,37.1c4.8,0,9.1-3.3,9.1-9.7s-4.3-10.2-9.1-10.2-9,3.7-9,10.2S171.6-288,176.4-288Z" transform="translate(719.6 345.11)"/><path class="cls-1" d="M211.8-317.41c0-4.3,2.3-6.5,6.5-6.5h6.9c4.3,0,6.4,2.6,6.4,7.3h0.2c2.8-5.2,7-8.5,15.4-8.5,9.3,0,18.8,4,18.8,19.2v27.4c0,4.2-2.3,6.5-6.6,6.5h-7.8c-4.2,0-6.5-2.3-6.5-6.5v-22.9c0-3.7-1.7-4.9-4.6-4.9-6.5,0-7.8,6-7.8,11.4v16.4c0,4.2-2.3,6.5-6.6,6.5h-7.8c-4.2,0-6.5-2.3-6.5-6.5v-38.9Z" transform="translate(719.6 345.11)"/><path class="cls-1" d="M298.3-325.11c15.9,0,24.7,11,24.7,24.3a7.09,7.09,0,0,1-6.9,6.8H291.9c1.7,4.5,5.8,6,9.7,6a20.33,20.33,0,0,0,8.1-1.7c3.9-1.7,6.8-1.2,8.8,2.6l1.6,3.1c1.9,3.8,1.3,7-2.3,9a39.38,39.38,0,0,1-18,4.2c-19.6,0-29-14.1-29-27.2C270.8-312.71,280.6-325.11,298.3-325.11Zm4.6,20.6c0.3-3.2-1.4-6.5-4.8-6.5-4.5,0-5.8,3.4-6,6.5h10.8Z" transform="translate(719.6 345.11)"/></svg>