<?xml version="1.0" encoding="utf-8"?>
<!-- Generator: Adobe Illustrator 20.0.0, SVG Export Plug-In . SVG Version: 6.00 Build 0)  -->
<svg version="1.1" baseProfile="tiny" id="Layer_1" xmlns="http://www.w3.org/2000/svg" xmlns:xlink="http://www.w3.org/1999/xlink"
	 x="0px" y="0px" viewBox="0 0 260 50" xml:space="preserve">
<g>
	<path fill="#0075C9" d="M112.4,28.4h1.1v-6.6h-1.1v-1.3h4.4c0.5,0,1.1,0,1.6,0.2c1,0.4,1.6,1.4,1.6,2.7c0,1.3-0.7,2.4-1.7,2.8
		c-0.4,0.1-0.9,0.2-1.4,0.2h-1.6v2h1.1v1.3h-3.9V28.4z M116.6,25.1c0.4,0,0.7-0.1,0.9-0.2c0.5-0.2,0.8-0.8,0.8-1.4
		c0-0.6-0.2-1.1-0.7-1.4c-0.3-0.2-0.6-0.2-1-0.2h-1.4v3.2H116.6z"/>
	<path fill="#0075C9" d="M124.3,25.6h0.4v-0.2c0-0.8-0.5-1.1-1.2-1.1c-1,0-1.9,0.6-1.9,0.6l-0.6-1.1c0,0,1-0.8,2.6-0.8
		c1.8,0,2.7,0.9,2.7,2.6v2.6c0,0.2,0.1,0.3,0.3,0.3h0.6v1.2h-1.6c-0.6,0-0.8-0.3-0.8-0.7v-0.1c0-0.2,0-0.3,0-0.3h0
		c0,0-0.6,1.3-2.1,1.3c-1.1,0-2.2-0.7-2.2-2C120.6,25.8,123.2,25.6,124.3,25.6z M123.2,28.6c0.9,0,1.5-1,1.5-1.8v-0.2h-0.3
		c-0.6,0-2.2,0.1-2.2,1.1C122.2,28.2,122.6,28.6,123.2,28.6z"/>
	<path fill="#0075C9" d="M131.5,22.9c1.1,0,2.7,0.4,2.7,1.6v0.9h-1.4V25c0-0.4-0.7-0.6-1.2-0.6c-1.2,0-1.9,0.8-1.9,2
		c0,1.4,0.9,2.1,2.1,2.1c0.9,0,1.7-0.5,2.1-0.8l0.6,1.2c-0.5,0.4-1.5,1-2.7,1c-1.9,0-3.6-1.3-3.6-3.4
		C128,24.4,129.5,22.9,131.5,22.9z"/>
	<path fill="#0075C9" d="M135.4,28.5h1v-4.1h-1v-1.2h2.7v5.4h0.9v1.2h-3.5V28.5z M136.3,20.5h1.7V22h-1.7V20.5z"/>
	<path fill="#0075C9" d="M139.9,28.5h1v-4.1h-1v-1.2h1v-0.3c0-2.1,1.7-2.4,2.6-2.4c0.4,0,0.7,0.1,0.7,0.1v1.3c0,0-0.2,0-0.5,0
		c-0.4,0-1.1,0.1-1.1,1v0.3h4.6v5.4h1v1.2h-3.5v-1.2h1v-4.1h-3v4.1h1.1v1.2h-3.7V28.5z M145.5,20.5h1.7V22h-1.7V20.5z"/>
	<path fill="#0075C9" d="M152.4,22.9c1.1,0,2.7,0.4,2.7,1.6v0.9h-1.4V25c0-0.4-0.7-0.6-1.2-0.6c-1.2,0-1.9,0.8-1.9,2
		c0,1.4,0.9,2.1,2.1,2.1c0.9,0,1.7-0.5,2.1-0.8l0.6,1.2c-0.5,0.4-1.5,1-2.7,1c-1.9,0-3.6-1.3-3.6-3.4
		C148.9,24.4,150.4,22.9,152.4,22.9z"/>
	<path fill="#0075C9" d="M159.5,28.4h1.1v-6.6h-1.1v-1.3h3.9v1.3h-1.1v2.7h4.2v-2.7h-1.1v-1.3h3.9v1.3h-1.1v6.6h1.1v1.3h-3.9v-1.3
		h1.1v-2.6h-4.2v2.6h1.1v1.3h-3.9V28.4z"/>
	<path fill="#0075C9" d="M174,25.6h0.4v-0.2c0-0.8-0.5-1.1-1.2-1.1c-1,0-1.9,0.6-1.9,0.6l-0.6-1.1c0,0,1-0.8,2.6-0.8
		c1.8,0,2.7,0.9,2.7,2.6v2.6c0,0.2,0.1,0.3,0.3,0.3h0.6v1.2h-1.6c-0.6,0-0.8-0.3-0.8-0.7v-0.1c0-0.2,0-0.3,0-0.3h0
		c0,0-0.6,1.3-2.1,1.3c-1.1,0-2.2-0.7-2.2-2C170.3,25.8,173,25.6,174,25.6z M172.9,28.6c0.9,0,1.5-1,1.5-1.8v-0.2h-0.3
		c-0.6,0-2.2,0.1-2.2,1.1C172,28.2,172.3,28.6,172.9,28.6z"/>
	<path fill="#0075C9" d="M177.9,28.5h1v-3.9c0-0.2-0.1-0.3-0.3-0.3h-0.7v-1.2h1.7c0.6,0,0.9,0.2,0.9,0.8v0.4c0,0.2,0,0.4,0,0.4h0
		c0.3-0.9,1.1-1.7,2.1-1.7c0.2,0,0.3,0,0.3,0v1.6c0,0-0.2,0-0.4,0c-1.3,0-1.9,1.2-1.9,2.4v1.4h0.9v1.2h-3.5V28.5z"/>
	<path fill="#0075C9" d="M186.5,22.9c1.4,0,1.9,0.9,1.9,0.9h0c0,0,0-0.2,0-0.5v-1.7h-1v-1.2h2.7v7.7c0,0.2,0.1,0.3,0.3,0.3h0.6v1.2
		h-1.6c-0.6,0-0.8-0.3-0.8-0.7v-0.1c0-0.2,0-0.3,0-0.3h0c0,0-0.5,1.2-2.2,1.2c-1.8,0-2.9-1.4-2.9-3.5
		C183.5,24.3,184.7,22.9,186.5,22.9z M186.8,28.5c0.9,0,1.7-0.6,1.7-2c0-1.1-0.5-2.1-1.6-2.1c-0.9,0-1.7,0.7-1.7,2
		C185.1,27.6,185.8,28.5,186.8,28.5z"/>
	<path fill="#0075C9" d="M191.8,27.5h1.4v0.4c0,0.5,0.6,0.7,1.3,0.7c0.7,0,1.1-0.2,1.1-0.7c0-0.6-0.6-0.7-1.5-1
		c-1-0.3-2.1-0.8-2.1-2c0-1.4,1.4-1.9,2.6-1.9c1,0,2.4,0.4,2.4,1.4v0.8h-1.4v-0.4c0-0.3-0.4-0.5-1-0.5c-0.5,0-1,0.2-1,0.6
		c0,0.5,0.6,0.8,1.4,1c1,0.3,2.2,0.7,2.2,2c0,1.3-1.3,2-2.8,2c-1.2,0-2.7-0.5-2.7-1.6V27.5z"/>
	<path fill="#0075C9" d="M201.7,22.9c1.1,0,2.7,0.4,2.7,1.6v0.9H203V25c0-0.4-0.7-0.6-1.2-0.6c-1.2,0-1.9,0.8-1.9,2
		c0,1.4,0.9,2.1,2.1,2.1c0.9,0,1.7-0.5,2.1-0.8l0.6,1.2c-0.5,0.4-1.5,1-2.7,1c-1.9,0-3.6-1.3-3.6-3.4
		C198.1,24.4,199.6,22.9,201.7,22.9z"/>
	<path fill="#0075C9" d="M209,25.6h0.4v-0.2c0-0.8-0.5-1.1-1.2-1.1c-1,0-1.9,0.6-1.9,0.6l-0.6-1.1c0,0,1-0.8,2.6-0.8
		c1.8,0,2.7,0.9,2.7,2.6v2.6c0,0.2,0.1,0.3,0.3,0.3h0.6v1.2h-1.6c-0.6,0-0.8-0.3-0.8-0.7v-0.1c0-0.2,0-0.3,0-0.3h0
		c0,0-0.6,1.3-2.1,1.3c-1.1,0-2.2-0.7-2.2-2C205.3,25.8,207.9,25.6,209,25.6z M207.9,28.6c0.9,0,1.5-1,1.5-1.8v-0.2h-0.3
		c-0.6,0-2.2,0.1-2.2,1.1C206.9,28.2,207.3,28.6,207.9,28.6z"/>
	<path fill="#0075C9" d="M213.5,31v-6.4c0-0.2-0.1-0.3-0.3-0.3h-0.7v-1.2h1.7c0.6,0,0.8,0.3,0.8,0.6v0c0,0.2,0,0.3,0,0.3h0
		c0,0,0.6-1.1,2.1-1.1c1.8,0,2.9,1.4,2.9,3.5c0,2.1-1.3,3.5-3,3.5c-1.3,0-1.9-0.9-1.9-0.9h0c0,0,0,0.2,0,0.6V31h1v1.2h-3.6V31H213.5
		z M216.8,28.5c0.9,0,1.7-0.7,1.7-2c0-1.3-0.7-2.1-1.6-2.1c-0.9,0-1.7,0.6-1.7,2.1C215.1,27.5,215.7,28.5,216.8,28.5z"/>
	<path fill="#0075C9" d="M224.3,22.9c1.9,0,2.9,1.4,2.9,3.1c0,0.2,0,0.6,0,0.6h-4.6c0.1,1.2,1,1.8,2,1.8c1.1,0,1.9-0.7,1.9-0.7
		l0.6,1.2c0,0-1,0.9-2.7,0.9c-2.2,0-3.5-1.6-3.5-3.5C221,24.4,222.4,22.9,224.3,22.9z M225.6,25.7c0-0.9-0.6-1.4-1.3-1.4
		c-0.8,0-1.4,0.6-1.6,1.4H225.6z"/>
	<path fill="#0075C9" d="M228.2,27.5h1.4v0.4c0,0.5,0.6,0.7,1.3,0.7c0.7,0,1.1-0.2,1.1-0.7c0-0.6-0.6-0.7-1.5-1
		c-1-0.3-2.1-0.8-2.1-2c0-1.4,1.4-1.9,2.6-1.9c1,0,2.4,0.4,2.4,1.4v0.8H232v-0.4c0-0.3-0.4-0.5-1-0.5c-0.5,0-1,0.2-1,0.6
		c0,0.5,0.6,0.8,1.4,1c1,0.3,2.2,0.7,2.2,2c0,1.3-1.3,2-2.8,2c-1.2,0-2.7-0.5-2.7-1.6V27.5z"/>
</g>
<g>
	<path fill="#F7F4EC" d="M42.1,33.2l0-0.3l0.1-0.3l0.1-0.3l0-0.4l0.2-0.4l0.3-0.1l0.3-0.1l0.3-0.1l0.3,0l0.3-0.2l0.3-0.1l0.3,0
		l0.3,0l0.3-0.1l0.5-0.2l0.5-0.1l0.4-0.2l0.4-0.1l0.5-0.1l0.2,0v-0.6l-0.3,0.1L47,29.3l-0.5,0.2l-0.5,0.1l-0.4,0.2l-0.3,0.1L44.9,30
		l-0.4,0.1l-0.3,0.1l-0.3,0.1l-0.3,0.1L43,30.7l-0.4,0.1l-0.1-0.4l0-0.4l-0.1-0.4l-0.1-0.4l-0.1-0.3L42,28.4l-0.3-0.4l-0.2-0.4
		l0.3-0.2l0.3-0.2l0.4-0.2l0.2-0.3l0.2-0.2l0.2-0.3l0.2-0.3l0.1-0.3l0.1-0.2l0.5,0.2l0.3,0.2l0.3,0.1l0.3,0.2l0.3,0.1l0.3,0.3
		l0.3,0.2l0.3,0.3l0.3,0.2l0.3,0.3l0.4,0.2l0.3,0.3l0.3,0.2l0,0v-0.6l0,0l-0.2-0.4L47.2,27l-0.3-0.2l-0.4-0.2l-0.4-0.1l-0.3-0.3
		l-0.3-0.3l-0.3-0.1l-0.3-0.2l-0.3-0.1l-0.3-0.2L44,25l-0.2-0.2l0.1-0.3l0.1-0.3l0.1-0.4l0.2-0.3l0.1-0.3l0.1-0.3l0.2-0.3l0.1-0.3
		l0.2-0.4l0.3,0.1l0.3,0.3l0.5,0.2l0.3,0.1l0.3,0.1l0.4,0.1l0.4,0.1l0.4,0.1l0.1,0v-0.6l-0.2,0l-0.4-0.1L46.7,22l-0.4-0.2L46,21.7
		l-0.3-0.1l-0.3-0.2L45,21.2l-0.5-0.1l-0.4,0L43.8,21l-0.3-0.2l-0.3-0.2l0.1-0.4l0.2-0.3l0.1-0.4l0.1-0.4l0.1-0.4l0.2-0.5l0.1-0.5
		l0.3-0.5l0.1-0.5l0-0.5h-0.8l0,0l-0.1,0.3l0,0.3l-0.2,0.4l0,0.4l-0.1,0.5l-0.2,0.4l-0.3,0.4l-0.2,0.4l0,0.4l0.1,0.4l-0.1,0.4
		l-0.3,0.1L42,21.1l-0.3,0.1l-0.3,0.1L41,21.3l-0.3,0.2l-0.4,0.1l-0.3,0.3L39.7,22l-0.6-0.1l-0.4-0.1l-0.4,0l-0.4,0l-0.4,0l-0.4-0.1
		l-0.4-0.1l-0.1-0.3l-0.1-0.3l0-0.4l0-0.4l-0.1-0.4l-0.1-0.4L36.3,19l0-0.4l-0.2-0.4l0-0.4l-0.1-0.4L35.9,17l0-0.4l0-0.2h-0.7l0,0
		l0.1,0.3l-0.1,0.3l0.1,0.3l0,0.4l0,0.4l0.2,0.4l0.2,0.4l0.1,0.4L36,20l0,0.4l0,0.4l0.2,0.4l0.1,0.4l-0.4,0.1l-0.4,0l-0.4,0l-0.4,0
		l-0.4,0l-0.4,0l-0.4,0.1L33.2,22l-0.3,0.2l-0.4,0.1L32.2,22L32,21.6l-0.1-0.4l-0.2-0.4l-0.1-0.3l-0.1-0.3l-0.1-0.3l-0.1-0.3
		L31,19.2l-0.1-0.3l-0.2-0.4l-0.2-0.4l-0.2-0.4L30,17.4l-0.2-0.3l-0.2-0.2v0.6l0.1,0.2l0.2,0.3l0.1,0.3l0.2,0.3l0.2,0.3l0.1,0.3
		l0.1,0.3l0.1,0.3l0.1,0.3l0,0.4l0.1,0.3l-0.3,0.2l-0.4,0.1L30,21.5l-0.3,0.2v0.5l0,0L30,22l0.4-0.2l0.5-0.1l0.5-0.2l0.1,0.3
		l0.1,0.3l0.1,0.3l0.3,0.4l0.3,0.3l0.3,0.3l0.3,0.3l0.2,0.4l0.3,0.4l0.4,0.3l0.3,0.3l0.3,0.4l0.4,0.3l-0.4,0.4l-0.3,0.2l-0.3,0.2
		L33.6,27l-0.3,0.3l-0.4,0.2l-0.4,0.2l-0.4,0.2l-0.3,0.1l-0.3,0.1l-0.3,0.1L31,28.5l-0.3,0.2l-0.3,0.2l-0.3,0l-0.5,0.2V30l0.1,0
		l0.3-0.2l0.2-0.3l0.3-0.2l0.3-0.1l0.3-0.1l0.3-0.1l0.3-0.1l0.3-0.1l0.3-0.2l0.1,0.3l0.2,0.3l-0.1,0.4L32.4,30l-0.1,0.4l-0.1,0.4
		L32,31.1l-0.2,0.4l-0.1,0.4l-0.3,0.4l-0.1,0.3L31.1,33l-0.2,0.4l-0.2,0.3h0.6l0.1-0.3l0.3-0.3l0.1-0.3l0.2-0.2l0.1-0.3l0.2-0.3
		l0.2-0.3l0.1-0.3l0.1-0.4l0.1-0.4l0.2-0.4l0.1-0.4l0.4,0.1l0.4,0.2l0.4,0.1l0.3,0.3l0.3,0.2l0.2,0.2l0.4,0.3l0.2,0.4l0.2,0.3
		l0.3,0.2l0.4,0.2l0.4,0.3l0.3,0.1l0.3,0.2l0.3,0.3l0.4,0.2l0.2,0.1h0.8l-0.4-0.3l-0.7-0.5l-0.9-0.4l-0.6-0.7L36,31.1l-0.5-0.7
		L34.7,30L34,29.5l-0.8-0.3l-0.5-0.7l0.7-0.5l0.7-0.5l0.6-0.6l1-0.5l1-0.3l0.6-0.5l0.5-0.3l0.5-0.4l0.6,1l0.6,0.6l0.6,0.6l0.7,0.8
		l0.4,1l0.3,0.8l0.3,0.8l0.1,0.9L41.7,32l-0.2,0.9l0,0.8H42l0-0.1L42.1,33.2z M38.4,23.4l-0.2,0.3l-0.1,0.4l-0.2,0.3l-0.3,0.3
		l-0.4,0.2L36.9,25l-0.3,0.2l-0.3,0.2L36,25.6l-0.4,0.1l-0.3-0.2L35,25.3l-0.3-0.2l-0.2-0.3l-0.2-0.3l-0.2-0.3l-0.3-0.2l-0.3-0.1
		l-0.2-0.2l-0.2-0.4l-0.1-0.3l0.3-0.2l0.3-0.2l0.3-0.1l0.4-0.1l0.4,0l0.4,0l0.4-0.1l0.4,0l0.4,0l0.4,0l0.4,0l0.4,0l0.4,0.1l0.4-0.1
		l0.4,0l0.3,0.1l0.3,0.1L39,22.8l-0.3,0.3L38.4,23.4z M41.4,27.3L41,27l-0.3-0.4l-0.3-0.2l-0.3-0.2l-0.2-0.4l-0.3-0.3l-0.2-0.3
		l-0.3-0.3l-0.1-0.3l-0.2-0.3l0.2-0.4l0.1-0.4l0.2-0.4l0.3-0.3l0.3-0.3l0.3-0.3l0.3-0.2l0.3-0.2l0.3-0.1l0.3-0.2l0.3-0.1l0.3-0.1
		l0.3-0.1l0.3-0.1l0.3-0.1l0.4,0.1l0.4,0.2l0.4,0.2L44,22l-0.2,0.4l-0.1,0.3l-0.2,0.5l-0.2,0.4L43.2,24l0,0.4l-0.1,0.4L43,25.2
		l-0.2,0.3l-0.2,0.3l-0.1,0.3l-0.3,0.2l-0.2,0.4l-0.4,0.2L41.4,27.3z"/>
	<polygon fill="#F2DFC3" points="38,33.3 37.7,33.1 37.4,32.9 37.1,32.7 36.7,32.4 36.4,32.2 36,31.9 35.8,31.6 35.6,31.2 
		35.1,30.9 34.9,30.7 34.6,30.5 34.3,30.2 33.9,30.1 33.5,29.8 33.1,29.7 33,30.2 32.7,30.6 32.7,31 32.5,31.4 32.4,31.7 32.2,32 
		32,32.3 31.9,32.6 31.7,32.8 31.6,33.1 31.3,33.4 31.2,33.6 38.5,33.6 38.4,33.5 	"/>
	<polygon fill="#F8E4D2" points="31.1,33 31.3,32.7 31.4,32.3 31.7,31.9 31.8,31.5 32,31.1 32.2,30.8 32.3,30.4 32.4,30 32.5,29.6 
		32.7,29.2 32.5,28.9 32.4,28.6 32.1,28.8 31.8,28.9 31.4,29 31.1,29.1 30.8,29.2 30.5,29.3 30.2,29.5 30,29.8 29.7,30 29.6,30 
		29.6,33.6 30.6,33.6 30.8,33.4 	"/>
	<polygon fill="#F8E7D0" points="41.7,32 42.1,31.1 42,30.3 41.7,29.4 41.4,28.6 41,27.7 40.3,26.9 39.7,26.3 39.1,25.7 38.5,24.7 
		37.9,25.2 37.4,25.5 36.8,25.9 35.8,26.2 34.8,26.7 34.2,27.3 33.5,27.9 32.7,28.4 33.2,29.1 34,29.5 34.7,30 35.5,30.4 36,31.1 
		36.7,31.7 37.3,32.4 38.2,32.8 38.9,33.3 39.3,33.6 41.6,33.6 41.6,32.8 	"/>
	<polygon fill="#FFE5C7" points="30.4,28.9 30.7,28.7 31,28.5 31.3,28.3 31.5,28.2 31.9,28.1 32.2,27.9 32.5,27.7 32.9,27.5 
		33.3,27.3 33.6,27 33.9,26.7 34.2,26.6 34.5,26.4 34.9,26 34.5,25.6 34.2,25.2 33.9,24.9 33.5,24.6 33.2,24.3 33,23.9 32.6,23.5 
		32.3,23.2 32,22.9 31.7,22.5 31.6,22.2 31.5,21.9 31.4,21.5 30.9,21.8 30.5,21.8 30,22 29.7,22.2 29.6,22.2 29.6,29.1 30.1,29 	"/>
	<polygon fill="#F0E4CF" points="35.9,17 36.1,17.5 36.2,17.9 36.2,18.3 36.3,18.6 36.3,19 36.4,19.4 36.5,19.8 36.6,20.1 
		36.6,20.5 36.7,20.9 36.7,21.2 36.9,21.6 37.2,21.6 37.6,21.7 38,21.7 38.4,21.7 38.8,21.8 39.2,21.8 39.7,22 40.1,21.9 40.4,21.6 
		40.7,21.5 41,21.3 41.4,21.2 41.7,21.1 42,21.1 42.4,20.9 42.7,20.8 42.7,20.4 42.7,20 42.7,19.6 42.9,19.2 43.1,18.8 43.3,18.3 
		43.4,17.9 43.4,17.5 43.6,17.1 43.6,16.8 43.7,16.5 43.7,16.5 35.9,16.5 35.9,16.6 	"/>
	<polygon fill="#EFD6B8" points="44.3,17.4 44.1,17.9 43.9,18.3 43.8,18.8 43.6,19.1 43.5,19.5 43.5,19.9 43.3,20.2 43.2,20.6 
		43.5,20.8 43.8,21 44.2,21.1 44.5,21.1 45,21.2 45.4,21.4 45.7,21.5 46,21.7 46.4,21.7 46.7,22 47.1,22.1 47.6,22.2 47.8,22.2 
		47.8,16.5 44.5,16.5 44.4,16.9 	"/>
	<polygon fill="#FFE5C7" points="47.4,28 47.2,27.7 46.8,27.6 46.4,27.3 46.1,27.1 45.8,26.8 45.5,26.6 45.2,26.3 44.9,26.2 
		44.6,26 44.3,25.9 44,25.6 43.5,25.4 43.4,25.7 43.3,26 43.1,26.3 42.9,26.6 42.7,26.8 42.6,27.1 42.2,27.2 41.9,27.5 41.5,27.7 
		41.7,28.1 42,28.4 42.1,28.8 42.3,29.2 42.4,29.6 42.5,30 42.5,30.4 42.6,30.9 43,30.7 43.5,30.4 43.8,30.3 44.1,30.3 44.5,30.2 
		44.9,30 45.4,29.9 45.7,29.8 46.1,29.6 46.6,29.5 47,29.3 47.5,29.2 47.8,29.1 47.8,28.3 47.7,28.3 	"/>
	<polygon fill="#F8E4D2" points="47.3,22.7 46.9,22.6 46.6,22.5 46.2,22.4 45.9,22.3 45.4,22.1 45.1,21.8 44.8,21.7 44.6,22.1 
		44.5,22.5 44.3,22.8 44.2,23.1 44.1,23.4 44,23.8 43.9,24.1 43.8,24.5 43.7,24.8 44,25 44.3,25.2 44.5,25.3 44.9,25.5 45.1,25.7 
		45.5,25.8 45.8,26.1 46.1,26.4 46.5,26.5 46.9,26.7 47.2,27 47.5,27.2 47.7,27.6 47.8,27.6 47.8,22.8 47.7,22.8 	"/>
	<polygon fill="#FFECD1" points="42.1,26.8 42.3,26.4 42.6,26.2 42.7,25.9 42.8,25.5 43,25.2 43.1,24.8 43.2,24.4 43.2,24 
		43.4,23.6 43.6,23.3 43.8,22.8 43.8,22.5 44,22 44.3,21.6 43.8,21.4 43.4,21.3 43,21.1 42.7,21.2 42.3,21.3 42,21.4 41.7,21.5 
		41.4,21.6 41.1,21.8 40.8,22 40.5,22.2 40.2,22.4 39.9,22.6 39.7,23 39.4,23.2 39.2,23.6 39.1,24.1 38.9,24.5 39.1,24.8 39.2,25.1 
		39.4,25.4 39.6,25.7 39.9,25.9 40.1,26.3 40.4,26.5 40.7,26.7 41,27 41.4,27.3 41.7,27.1 	"/>
	<polygon fill="#F2DFC3" points="39.3,22.5 39.1,22.4 38.8,22.2 38.4,22.3 38,22.3 37.6,22.2 37.2,22.2 36.8,22.2 36.4,22.2 
		35.9,22.2 35.5,22.2 35.1,22.3 34.7,22.3 34.3,22.3 33.9,22.4 33.6,22.5 33.3,22.7 33.1,22.9 33.2,23.2 33.4,23.6 33.6,23.8 
		33.9,23.9 34.2,24.1 34.4,24.5 34.6,24.8 34.8,25.1 35,25.3 35.3,25.6 35.5,25.8 36,25.6 36.3,25.4 36.6,25.2 36.9,25 37.2,24.9 
		37.6,24.7 37.9,24.4 38.1,24.1 38.2,23.7 38.4,23.4 38.8,23.1 39,22.8 	"/>
	<polygon fill="#FFECD1" points="30,17.4 30.3,17.7 30.5,18.1 30.7,18.5 30.9,18.9 31,19.2 31.1,19.6 31.2,19.9 31.3,20.2 
		31.5,20.5 31.6,20.9 31.8,21.2 32,21.6 32.2,22 32.5,22.2 32.8,22.2 33.2,22 33.6,21.9 33.9,21.8 34.3,21.8 34.7,21.8 35.1,21.8 
		35.5,21.8 35.9,21.8 36.3,21.7 36.2,21.2 36,20.8 36,20.4 36,20 35.9,19.5 35.8,19.1 35.6,18.7 35.4,18.3 35.4,17.9 35.4,17.5 
		35.3,17.2 35.3,16.8 35.3,16.5 35.3,16.5 29.6,16.5 29.6,16.9 29.8,17.1 	"/>
	<polygon fill="#FFE5C7" points="30.3,21.4 30.7,21.3 31,21.1 31,20.7 31,20.4 30.8,20 30.7,19.7 30.6,19.3 30.5,19 30.3,18.7 
		30.1,18.4 29.9,18 29.7,17.7 29.6,17.5 29.6,21.7 30,21.5 	"/>
	<polygon fill="#EFD6B8" points="47.8,29.7 47.5,29.8 47.1,29.9 46.7,30 46.4,30.2 45.9,30.3 45.4,30.5 45.1,30.6 44.7,30.6 
		44.4,30.7 44.1,30.8 43.8,31 43.5,31 43.2,31.2 42.8,31.2 42.5,31.3 42.4,31.7 42.3,32.2 42.3,32.5 42.1,32.9 42.1,33.2 42,33.5 
		42,33.6 47.8,33.6 	"/>
</g>
<g>
	<rect x="82.3" y="16.5" fill="#F2E5D3" width="17.2" height="17.2"/>
	<polygon fill="#826D5A" points="83.4,21.9 84.1,21.8 84.8,21.9 85.5,21.9 86.2,21.9 86.9,21.9 87.6,21.9 88.2,21.8 88.9,21.8 
		89.6,21.8 90.3,21.9 90.3,21.2 90.3,20.5 90.3,19.8 90.3,19.2 90.3,18.5 90.3,17.8 90.3,17.2 90.3,16.5 90.3,16.5 82.3,16.5 
		82.3,21.9 82.7,21.8 	"/>
	<polygon fill="#B2957E" points="90.6,17.6 91.2,17.6 91.9,17.6 92.6,17.6 93.2,17.6 93.9,17.6 94.6,17.6 94.6,16.8 94.6,16.5 
		90.6,16.5 90.6,16.8 	"/>
	<polygon fill="#786453" points="95,17.6 95.7,17.6 96.4,17.6 97.1,17.6 97.8,17.6 98.5,17.6 99.2,17.7 99.5,17.6 99.5,16.5 
		95,16.5 95,17 	"/>
	<polygon fill="#9F856F" points="98.3,17.9 97.6,17.9 96.9,17.9 96.3,17.9 95.6,17.9 94.9,17.9 94.3,17.9 93.6,17.9 92.9,17.9 
		92.2,17.9 91.6,17.9 90.9,17.9 90.9,18.6 90.9,19.3 90.9,19.9 90.9,20.6 90.9,21.3 90.9,22 90.9,22.6 90.9,23.3 91.6,23.3 
		92.2,23.3 92.9,23.3 93.6,23.3 94.3,23.3 94.9,23.3 95.6,23.3 96.3,23.3 96.9,23.3 97.6,23.3 98.3,23.3 98.9,23.3 99.5,23.3 
		99.5,17.9 98.9,17.9 	"/>
	<polygon fill="#B2957E" points="98.1,23.6 97.4,23.6 96.7,23.6 96,23.6 95.3,23.6 94.6,23.6 94.6,24.3 94.6,24.9 94.6,25.6 
		94.6,26.2 95.3,26.2 96,26.2 96.7,26.2 97.4,26.2 98.1,26.2 98.8,26.2 99.5,26.2 99.5,23.6 98.8,23.6 	"/>
	<polygon fill="#826D5A" points="93.4,23.6 92.7,23.6 92,23.6 91.3,23.6 90.6,23.6 89.9,23.6 89.3,23.6 88.6,23.6 87.9,23.6 
		87.2,23.6 86.5,23.6 85.8,23.6 85.8,24.3 85.8,24.9 85.8,25.6 85.8,26.2 85.8,26.9 85.8,27.5 86.5,27.5 87.2,27.5 87.9,27.5 
		88.6,27.5 89.3,27.5 90,27.5 90.6,27.5 91.3,27.5 92,27.5 92.7,27.5 93.4,27.5 94.1,27.5 94.1,26.9 94.1,26.2 94.1,25.6 94.1,24.9 
		94.1,24.3 94.1,23.6 	"/>
	<polygon fill="#947C67" points="87.4,23.3 88.1,23.3 88.8,23.3 89.6,23.2 90.3,23.2 90.3,22.3 89.6,22.3 88.8,22.3 88.1,22.3 
		87.4,22.3 86.7,22.3 85.9,22.3 85.9,23.3 86.7,23.3 	"/>
	<polygon fill="#9F856F" points="83.5,29.1 84.2,29.1 84.8,29.1 85.4,29.1 85.5,28.4 85.4,27.7 85.4,27.1 85.4,26.4 85.4,25.7 
		85.4,25 85.5,24.3 85.4,23.6 85.4,23 85.4,22.3 84.8,22.3 84.2,22.3 83.5,22.3 82.9,22.3 82.3,22.3 82.3,29.1 82.9,29.1 	"/>
	<polygon fill="#AC8F77" points="87.9,27.8 87.3,27.8 86.7,27.8 86,27.8 86,28.5 86,29.1 86.7,29.1 87.3,29.1 88,29.1 88.6,29.1 
		88.6,28.5 88.6,27.8 	"/>
	<polygon fill="#8B7460" points="88.7,32.8 88.7,32.2 88.7,31.5 88.7,30.8 88.7,30.2 88.7,29.5 88,29.5 87.2,29.5 86.5,29.5 
		85.8,29.5 85.1,29.5 84.4,29.5 83.7,29.5 83,29.5 82.3,29.5 82.3,33.6 88.7,33.6 88.6,33.5 	"/>
	<polygon fill="#9F856F" points="98.2,27.9 97.5,27.9 96.8,27.9 96.1,27.9 95.4,27.9 94.8,27.9 94.1,28 93.4,28 92.7,27.9 92,27.9 
		91.3,27.9 90.6,27.9 89.9,27.9 89.2,27.9 89.2,28.6 89.3,29.3 89.2,30 89.2,30.7 89.2,31.4 89.2,32.1 89.3,32.8 89.3,33.4 
		89.3,33.6 99.5,33.6 99.5,27.9 98.9,27.9 	"/>
	<polygon fill="#786453" points="99.3,26.5 98.6,26.5 97.9,26.5 97.2,26.5 96.5,26.4 95.9,26.4 95.2,26.4 94.5,26.5 94.5,27.1 
		94.5,27.7 95.2,27.7 95.9,27.7 96.5,27.7 97.2,27.7 97.9,27.7 98.6,27.7 99.3,27.7 99.5,27.7 99.5,26.5 	"/>
</g>
<rect x="56.4" y="16.5" fill="#E4E5E6" width="17.2" height="17.2"/>
<rect x="56.4" y="22.4" fill="#CC6B42" width="5.3" height="2.4"/>
<rect x="62.4" y="22.4" fill="#231F20" width="5.3" height="2.4"/>
<rect x="59.4" y="25.3" fill="#B95838" width="5.3" height="2.4"/>
<rect x="65.4" y="25.3" fill="#CC6B42" width="5.3" height="2.4"/>
<rect x="56.4" y="25.3" fill="#B95838" width="2.3" height="2.4"/>
<rect x="71.3" y="25.3" fill="#B95838" width="2.3" height="2.4"/>
<rect x="68.3" y="22.4" fill="#B95838" width="5.3" height="2.4"/>
<rect x="56.4" y="28.3" fill="#CC6B42" width="5.3" height="2.4"/>
<rect x="62.4" y="28.3" fill="#B95838" width="5.3" height="2.4"/>
<rect x="59.4" y="19.4" fill="#231F20" width="5.3" height="2.4"/>
<rect x="65.4" y="19.4" fill="#CC6B42" width="5.3" height="2.4"/>
<rect x="71.3" y="19.4" fill="#B95838" width="2.3" height="2.4"/>
<rect x="56.4" y="19.4" fill="#B95838" width="2.3" height="2.4"/>
<rect x="62.4" y="22.4" fill="#B95838" width="5.3" height="2.4"/>
<rect x="56.4" y="16.5" fill="#CC6B42" width="5.3" height="2.4"/>
<rect x="59.4" y="19.4" fill="#B95838" width="5.3" height="2.4"/>
<rect x="68.3" y="16.5" fill="#B95838" width="5.3" height="2.4"/>
<rect x="62.4" y="16.5" fill="#B95838" width="5.3" height="2.4"/>
<rect x="59.4" y="31.2" fill="#B95838" width="5.3" height="2.4"/>
<rect x="65.4" y="31.2" fill="#CC6B42" width="5.3" height="2.4"/>
<rect x="71.3" y="31.2" fill="#B95838" width="2.3" height="2.4"/>
<rect x="56.4" y="31.2" fill="#B95838" width="2.3" height="2.4"/>
<rect x="68.3" y="28.3" fill="#CC6B42" width="5.3" height="2.4"/>
</svg>
